<svg height="140" width="100" xmlns="http://www.w3.org/2000/svg"><path d="m20 20h10v10h-10z" fill="#880e4f"/><path d="m30 20h10v10h-10z" fill="#880e4f"/><path d="m40 20h10v10h-10z" fill="#880e4f"/><path d="m50 20h10v10h-10z" fill="#880e4f"/><path d="m60 20h10v10h-10z" fill="#880e4f"/><path d="m20 30h10v10h-10z" fill="#ead9d8"/><path d="m30 30h10v10h-10z" fill="#ead9d8"/><path d="m40 30h10v10h-10z" fill="#ead9d8"/><path d="m50 30h10v10h-10z" fill="#ead9d8"/><path d="m60 30h10v10h-10z" fill="#ead9d8"/><path d="m70 30h10v10h-10z" fill="#880e4f"/><path d="m20 40h10v10h-10z" fill="#ead9d8"/><path d="m30 40h10v10h-10z"/><path d="m40 40h10v10h-10z" fill="#ead9d8"/><path d="m50 40h10v10h-10z"/><path d="m60 40h10v10h-10z" fill="#ead9d8"/><path d="m70 40h10v10h-10z" fill="#880e4f"/><path d="m20 50h10v10h-10z" fill="#ead9d8"/><path d="m30 50h10v10h-10z"/><path d="m40 50h10v10h-10z" fill="#ead9d8"/><path d="m50 50h10v10h-10z"/><path d="m60 50h10v10h-10z" fill="#ead9d8"/><g fill="#c68641"><path d="m70 50h10v10h-10z"/><path d="m20 60h10v10h-10z"/><path d="m30 60h10v10h-10z"/><path d="m40 60h10v10h-10z"/><path d="m50 60h10v10h-10z"/><path d="m60 60h10v10h-10z"/><path d="m70 60h10v10h-10z"/><path d="m20 70h10v10h-10z"/><path d="m30 70h10v10h-10z"/><path d="m40 70h10v10h-10z"/><path d="m50 70h10v10h-10z"/></g><path d="m60 70h10v10h-10z" fill="#e22526"/><path d="m70 70h10v10h-10z" fill="#c68641"/><path d="m20 80h10v10h-10z" fill="#c68641"/><path d="m30 80h10v10h-10z" fill="#c68641"/><path d="m40 80h10v10h-10z" fill="#c68641"/><path d="m50 80h10v10h-10z" fill="#c68641"/><path d="m60 80h10v10h-10z" fill="#c68641"/><path d="m70 80h10v10h-10z" fill="#c68641"/><path d="m10 90h10v10h-10z" fill="#ead9d8"/><path d="m20 90h10v10h-10z" fill="#d50001"/><path d="m30 90h10v10h-10z" fill="#0d47a0"/><path d="m40 90h10v10h-10z" fill="#d50001"/><path d="m50 90h10v10h-10z" fill="#d50001"/><path d="m60 90h10v10h-10z" fill="#0d47a0"/><path d="m70 90h10v10h-10z" fill="#d50001"/><path d="m20 100h10v10h-10z" fill="#d50001"/><path d="m30 100h10v10h-10z" fill="#0d47a0"/><path d="m40 100h10v10h-10z" fill="#0d47a0"/><path d="m50 100h10v10h-10z" fill="#0d47a0"/><path d="m60 100h10v10h-10z" fill="#0d47a0"/><path d="m70 100h10v10h-10z" fill="#d50001"/><path d="m30 110h10v10h-10z" fill="#0d47a0"/><path d="m40 110h10v10h-10z" fill="#2a78fe"/><path d="m50 110h10v10h-10z" fill="#2a78fe"/><path d="m60 110h10v10h-10z" fill="#0d47a0"/><path d="m70 110h10v10h-10z" fill="#ead9d8"/><path d="m20 120h10v10h-10z" fill="#0d47a0"/><path d="m30 120h10v10h-10z" fill="#0d47a0"/><path d="m40 120h10v10h-10z" fill="#0d47a0"/><path d="m50 120h10v10h-10z" fill="#0d47a0"/><path d="m60 120h10v10h-10z" fill="#0d47a0"/><path d="m70 120h10v10h-10z" fill="#0d47a0"/><path d="m20 130h10v10h-10z"/><path d="m30 130h10v10h-10z"/><path d="m40 130h10v10h-10z"/><path d="m60 130h10v10h-10z"/><path d="m70 130h10v10h-10z"/></svg>